<svg id="Layer_1" data-name="Layer 1" xmlns="http://www.w3.org/2000/svg" xmlns:xlink="http://www.w3.org/1999/xlink" viewBox="0 0 123.6 79.89"><defs><style>.cls-1{fill:url(#linear-gradient);}.cls-2{fill:url(#linear-gradient-2);}</style><linearGradient id="linear-gradient" x1="-473.27" y1="-26.91" x2="222.32" y2="63.47" gradientUnits="userSpaceOnUse"><stop offset="0" stop-color="#eb118b"/><stop offset="0.5" stop-color="#f16469"/><stop offset="1" stop-color="#fab934"/></linearGradient><linearGradient id="linear-gradient-2" x1="-472.59" y1="-32.17" x2="223" y2="58.21" xlink:href="#linear-gradient"/></defs><path class="cls-1" d="M45.61,75A44.85,44.85,0,0,0,50.46,79a47.08,47.08,0,0,1-9.17.87,44.44,44.44,0,0,1-16.44-3A38.59,38.59,0,0,1,3.09,55.82,40,40,0,0,1,0,39.94,40,40,0,0,1,3.09,24.07,38.76,38.76,0,0,1,24.8,3,44.46,44.46,0,0,1,41.29,0a47.32,47.32,0,0,1,9.2.87A46.64,46.64,0,0,0,45.61,5c-.84.8-1.64,1.63-2.41,2.48A47.74,47.74,0,0,0,34.82,20.5,48.32,48.32,0,0,0,31,40a48.32,48.32,0,0,0,3.86,19.46,47.72,47.72,0,0,0,8.35,13C44,73.3,44.76,74.14,45.61,75Z"/><path class="cls-2" d="M120.52,24.08a39.1,39.1,0,0,0-8.62-12.65A38.67,38.67,0,0,0,98.87,3a44.15,44.15,0,0,0-16.33-3,44.71,44.71,0,0,0-16.4,3A40.71,40.71,0,0,0,62,5l-.1-.06a38,38,0,0,0-7.29,5c-.55.48-1.09,1-1.61,1.49A39,39,0,0,0,43,27.77a.83.83,0,0,0,0,.15A40.52,40.52,0,0,0,41.2,40a41.47,41.47,0,0,0,1.11,9.69l0,.12a36.6,36.6,0,0,0,2,6A39,39,0,0,0,53,68.5c.52.51,1.06,1,1.61,1.49a38,38,0,0,0,7.3,5l.05,0a41.45,41.45,0,0,0,4.22,1.92,44.71,44.71,0,0,0,16.4,3,44.15,44.15,0,0,0,16.33-3,38.67,38.67,0,0,0,13-8.39,39.1,39.1,0,0,0,8.62-12.65A40.08,40.08,0,0,0,123.6,40,40.08,40.08,0,0,0,120.52,24.08ZM112.93,52.9A31.74,31.74,0,0,1,106,63.23,30.89,30.89,0,0,1,95.6,70.07a34.73,34.73,0,0,1-13.07,2.41A35.12,35.12,0,0,1,69.4,70.07L69.19,70c.53-.46,1-.93,1.55-1.42a38.09,38.09,0,0,0,8.64-12.68,40.45,40.45,0,0,0,3.09-15.94A40.4,40.4,0,0,0,79.38,24a38,38,0,0,0-8.64-12.68c-.5-.49-1-1-1.55-1.43l.21-.08A35.12,35.12,0,0,1,82.53,7.4,34.73,34.73,0,0,1,95.6,9.82,30.89,30.89,0,0,1,106,16.66,31.8,31.8,0,0,1,112.93,27a33.15,33.15,0,0,1,2.47,13A33.08,33.08,0,0,1,112.93,52.9Z"/></svg>